<svg xmlns="http://www.w3.org/2000/svg" width="282" height="148" viewBox="0 0 282 148" fill="none">
<g filter="url(#filter0_d_2_231)">
<rect x="44" y="32" width="194" height="60" rx="9" fill="white"/>
</g>
<rect x="103" y="59" width="2" height="6" rx="1" fill="#201830"/>
<rect x="135" y="59" width="2" height="6" rx="1" fill="#201830"/>
<rect x="175" y="59" width="2" height="6" rx="1" fill="#A4A0AB"/>
<rect x="143" y="59" width="2" height="6" rx="1" fill="#201830"/>
<rect x="183" y="59" width="2" height="6" rx="1" fill="#A4A0AB"/>
<rect x="215" y="59" width="2" height="6" rx="1" fill="#A4A0AB"/>
<rect x="111" y="54" width="2" height="16" rx="1" fill="#201830"/>
<rect x="127" y="54" width="2" height="16" rx="1" fill="#201830"/>
<rect x="167" y="54" width="2" height="16" rx="1" fill="#A4A0AB"/>
<rect x="207" y="54" width="2" height="16" rx="1" fill="#A4A0AB"/>
<rect x="151" y="54" width="2" height="16" rx="1" fill="#201830"/>
</svg>
    
